<?xml version="1.0" encoding="UTF-8"?>
<!DOCTYPE svg PUBLIC "-//W3C//DTD SVG 1.1//EN" "http://www.w3.org/Graphics/SVG/1.1/DTD/svg11.dtd">
<!-- Creator: CorelDRAW -->
<svg xmlns="http://www.w3.org/2000/svg" xml:space="preserve" width="117.16mm" height="117.16mm" version="1.1" style="shape-rendering:geometricPrecision; text-rendering:geometricPrecision; image-rendering:optimizeQuality; fill-rule:evenodd; clip-rule:evenodd"
viewBox="0 0 48112.3 48112.26"
 xmlns:xlink="http://www.w3.org/1999/xlink"
 xmlns:xodm="http://www.corel.com/coreldraw/odm/2003">
 <defs>
  <style type="text/css">
   <![CDATA[
    .str8 {stroke:#CC9933;stroke-width:91.62;stroke-miterlimit:22.9256}
    .str2 {stroke:#CC9933;stroke-width:240.6;stroke-miterlimit:22.9256}
    .str0 {stroke:#CC9933;stroke-width:240.6;stroke-linejoin:round;stroke-miterlimit:22.9256}
    .str1 {stroke:#CC9933;stroke-width:240.6;stroke-linejoin:round;stroke-miterlimit:22.9256}
    .str4 {stroke:#CC9933;stroke-width:120.28;stroke-linecap:round;stroke-miterlimit:22.9256}
    .str5 {stroke:#CC9933;stroke-width:120.28;stroke-linecap:round;stroke-miterlimit:22.9256}
    .str7 {stroke:#CC9933;stroke-width:120.28;stroke-linecap:round;stroke-miterlimit:22.9256}
    .str6 {stroke:#CC9933;stroke-width:120.28;stroke-linecap:round;stroke-miterlimit:22.9256}
    .str3 {stroke:#CC9933;stroke-width:240.6;stroke-linecap:round;stroke-linejoin:round;stroke-miterlimit:22.9256}
    .fil3 {fill:none}
    .fil0 {fill:#052136}
    .fil2 {fill:#CC9933}
    .fil1 {fill:#CC9933;fill-rule:nonzero}
   ]]>
  </style>
 </defs>
 <g id="Camada_x0020_1">
  <metadata id="CorelCorpID_0Corel-Layer"/>
  <rect class="fil0" x="-0.03" y="-0.02" width="48112.3" height="48112.3" rx="23018.46" ry="24056.15"/>
  <g>
   <path class="fil1" d="M24056.09 2074.91l0 -206.07 0.12 0 0 206.07 -0.12 0zm-22186.84 21981.22l0 0 28.99 -1137.26 86.11 -1122.93 141.76 -1107.12 196 -1089.83 248.82 -1071.15 300.23 -1050.99 350.16 -1029.51 398.7 -1006.55 445.85 -982.12 491.55 -956.29 535.82 -929.1 578.65 -900.4 620.13 -870.38 660.08 -838.84 698.73 -805.95 735.85 -771.62 771.58 -735.85 805.91 -698.65 838.84 -660.13 870.34 -620.05 900.4 -578.69 929.02 -535.78 956.33 -491.51 982.08 -445.89 1006.47 -398.7 1029.47 -350.16 1050.99 -300.19 1071.11 -248.82 1089.79 -195.96 1107 -141.76 1122.85 -86.11 1137.22 -28.99 0 206.07 -1126.79 28.75 -1112.5 85.29 -1096.73 140.44 -1079.61 194.16 -1061.09 246.52 -1041.21 297.4 -1019.86 346.88 -997.11 395.01 -972.96 441.7 -947.46 486.99 -920.48 530.85 -892.1 573.35 -862.37 614.38 -831.12 654.05 -798.6 692.32 -764.51 729.12 -729.12 764.55 -692.32 798.56 -654.01 831.12 -614.38 862.33 -573.31 892.1 -530.89 920.48 -486.95 947.42 -441.66 972.92 -395.01 997.11 -346.88 1019.82 -297.35 1041.13 -246.52 1061.05 -194.12 1079.57 -140.44 1096.69 -85.29 1112.42 -28.75 1126.75 0 0 -205.33 0zm102.66 0l0 0 0 0 0 0 102.66 0 -102.66 0zm22084.17 22187.29l0 0 -1137.22 -28.99 -1122.85 -86.11 -1107 -141.76 -1089.79 -195.96 -1071.11 -248.82 -1050.99 -300.19 -1029.47 -350.16 -1006.47 -398.7 -982.08 -445.89 -956.33 -491.51 -929.02 -535.78 -900.4 -578.69 -870.34 -620.05 -838.84 -660.13 -805.91 -698.65 -771.58 -735.85 -735.85 -771.62 -698.73 -805.95 -660.08 -838.84 -620.13 -870.38 -578.65 -900.4 -535.82 -929.1 -491.55 -956.29 -445.85 -982.12 -398.7 -1006.55 -350.16 -1029.51 -300.23 -1050.99 -248.82 -1071.15 -196 -1089.83 -141.76 -1107.12 -86.11 -1122.93 -28.99 -1137.26 205.33 0 28.75 1126.75 85.29 1112.42 140.44 1096.69 194.12 1079.57 246.52 1061.05 297.35 1041.13 346.88 1019.82 395.01 997.11 441.66 972.92 486.95 947.42 530.89 920.48 573.31 892.1 614.38 862.33 654.01 831.12 692.32 798.56 729.12 764.55 764.51 729.12 798.6 692.32 831.12 654.05 862.37 614.38 892.1 573.35 920.48 530.85 947.46 486.99 972.96 441.7 997.11 395.01 1019.86 346.88 1041.21 297.4 1061.09 246.52 1079.61 194.16 1096.73 140.44 1112.5 85.29 1126.79 28.75 0 0 0 206.07zm0.12 -206.07l0 206.07 -0.12 0 0 -206.07 0.12 0zm22186.88 -21981.22l0 0 -28.99 1137.26 -86.11 1122.93 -141.76 1107.12 -196 1089.83 -248.82 1071.15 -300.23 1050.99 -350.16 1029.51 -398.74 1006.55 -445.85 982.12 -491.55 956.29 -535.82 929.1 -578.65 900.4 -620.13 870.38 -660.08 838.84 -698.73 805.95 -735.85 771.62 -771.62 735.85 -805.87 698.65 -838.88 660.13 -870.3 620.05 -900.44 578.69 -929.02 535.78 -956.29 491.51 -982.12 445.89 -1006.47 398.7 -1029.47 350.16 -1050.94 300.19 -1071.11 248.82 -1089.79 195.96 -1107.04 141.76 -1122.81 86.11 -1137.22 28.99 0 -206.07 1126.79 -28.75 1112.46 -85.29 1096.77 -140.44 1079.61 -194.16 1061.09 -246.52 1041.17 -297.4 1019.86 -346.88 997.11 -395.01 973 -441.7 947.42 -486.99 920.48 -530.85 892.14 -573.35 862.33 -614.38 831.16 -654.05 798.56 -692.32 764.55 -729.12 729.12 -764.55 692.32 -798.56 654.01 -831.12 614.38 -862.33 573.31 -892.1 530.89 -920.48 486.95 -947.42 441.66 -972.92 395.05 -997.11 346.88 -1019.82 297.35 -1041.13 246.52 -1061.05 194.12 -1079.57 140.44 -1096.69 85.29 -1112.42 28.75 -1126.75 0 0 205.33 0zm-102.66 0l0 0 0 0 0 0 -102.66 0 102.66 0zm-22084.21 -22187.29l0 0 1137.22 28.99 1122.81 86.11 1107.04 141.76 1089.79 195.96 1071.11 248.82 1050.94 300.19 1029.47 350.16 1006.47 398.7 982.12 445.89 956.29 491.51 929.02 535.78 900.44 578.69 870.3 620.05 838.88 660.13 805.87 698.65 771.62 735.85 735.85 771.62 698.73 805.95 660.08 838.84 620.13 870.38 578.65 900.4 535.82 929.1 491.55 956.29 445.85 982.12 398.74 1006.55 350.16 1029.51 300.23 1050.99 248.82 1071.15 196 1089.83 141.76 1107.12 86.11 1122.93 28.99 1137.26 -205.33 0 -28.75 -1126.75 -85.29 -1112.42 -140.44 -1096.69 -194.12 -1079.57 -246.52 -1061.05 -297.35 -1041.13 -346.88 -1019.82 -395.05 -997.11 -441.66 -972.92 -486.95 -947.42 -530.89 -920.48 -573.31 -892.1 -614.38 -862.33 -654.01 -831.12 -692.32 -798.56 -729.12 -764.55 -764.55 -729.12 -798.56 -692.32 -831.16 -654.05 -862.33 -614.38 -892.14 -573.35 -920.48 -530.85 -947.42 -486.99 -973 -441.7 -997.11 -395.01 -1019.86 -346.88 -1041.17 -297.4 -1061.09 -246.52 -1079.61 -194.16 -1096.77 -140.44 -1112.46 -85.29 -1126.79 -28.75 0 0 0 -206.07z"/>
  </g>
  <path class="fil2 str0" d="M27999.06 14093.96l-7883.19 0c721.81,2768.71 4097.21,2678.45 4015.74,5879.94 -173.13,-3209.75 3684.06,-3429.25 3867.45,-5879.94z"/>
  <path class="fil3 str1" d="M19333.82 9487.78l0 4124.65c187.55,3630.1 6015.13,4485.53 3551.58,6666.63 -1333.23,1181.2 -3584.18,2668.26 -3528.01,4609.22l0 3501.56m9510.08 23.24l0 -3524.8c56.18,-1940.95 -2194.78,-3428.01 -3528.01,-4609.22 -2463.55,-2181.1 3364.03,-3036.54 3551.58,-6666.63l0 -4121.61m-9969.48 18898.57l10304.33 24.47 720.78 1076.73 -11794.3 -20.08 769.2 -1081.13zm-0.9 -18901.73l10310.16 2.96 729.16 -1000.43 -11695.09 0 655.77 997.48z"/>
  <polygon class="fil2 str2" points="28299.82,26727.06 24100.23,23577.39 19888.49,26805.62 19889.6,27741.62 28300.15,27743.1 "/>
  <path class="fil3 str3" d="M26077.29 22250.45c1096.81,795.27 1719.65,1728.81 1829.01,2806.53"/>
  <line class="fil3 str4" x1="24112.43" y1="22954.68" x2="24112.43" y2= "23259.46" />
  <line class="fil3 str5" x1="24112.43" y1="22224.04" x2="24112.43" y2= "22528.87" />
  <line class="fil3 str6" x1="24112.43" y1="21362.2" x2="24112.43" y2= "21667.03" />
  <line class="fil3 str7" x1="24112.43" y1="20521.22" x2="24112.43" y2= "20826.05" />
  <line class="fil3 str8" x1="24090.63" y1="21362.2" x2="24090.63" y2= "21667.03" />
  <polygon class="fil2" points="23122.96,11587.37 23122.96,11076.81 23857.25,11076.81 23857.25,10428.63 24367.82,10428.63 24367.82,11076.81 25101.94,11076.81 25101.94,11587.37 24367.82,11587.37 24367.82,13153.48 23857.25,13153.48 23857.25,11587.37 "/>
  <polygon class="fil1" points="14848.87,33771 16833.31,36002.78 16056.8,36002.78 14296.66,34024.09 14296.66,36002.78 13663.97,36002.78 13663.97,31976.37 14296.66,31976.37 14296.66,33759.51 16045.3,31976.37 16597.47,31976.37 "/>
  <path id="_1" class="fil1" d="M20965.51 36002.78l-525.55 0 -375.42 -839.99 -1431.25 0 -375.42 839.99 -370.7 0 1534.49 -3425.63 1543.85 3425.63zm-1051.15 -1173.16l-567.81 -1295.16 -567.81 1295.16 1135.62 0z"/>
  <polygon id="_2" class="fil1" points="22678.59,32717.97 22678.59,36002.78 22162.4,36002.78 22162.4,32717.97 "/>
  <path id="_3" class="fil1" d="M25541.3 34482.38l976.08 1520.4 -567.81 0 -900.97 -1450.02 -337.89 0 0 1450.02 -506.79 0 0 -3284.82 844.67 0c369.14,0 648.34,78.19 837.61,234.61 189.27,156.42 283.93,376.98 283.93,661.69 0,231.49 -57.9,420.76 -173.62,567.77 -115.76,147.06 -267.5,247.17 -455.21,300.35zm131.41 -863.44c0,-406.71 -223.68,-610.07 -671.05,-610.07l-290.95 0 0 1243.58 295.63 0c444.25,0 666.37,-211.2 666.37,-633.52z"/>
  <path id="_4" class="fil1" d="M33824.31 35167.51c0,-153.3 -53.18,-278.46 -159.54,-375.42 -106.4,-97 -235.43,-173.62 -387.16,-229.97 -151.74,-56.3 -304.21,-117.28 -457.51,-182.99 -153.3,-65.7 -283.15,-165.04 -389.5,-297.97 -106.36,-132.97 -159.54,-301.13 -159.54,-504.49 0,-265.9 93.83,-486.46 281.54,-661.65 193.95,-175.18 434.84,-262.78 722.67,-262.78 334.72,0 622.55,129.81 863.44,389.46l-145.45 206.48c-34.41,-31.25 -87.59,-75.07 -159.58,-131.37 -150.13,-103.24 -330.04,-154.86 -539.64,-154.86 -165.78,0 -299.53,48.5 -401.21,145.45 -101.68,97 -152.52,222.12 -152.52,375.42 0,237.77 184.59,425.48 553.73,563.13 131.41,46.9 284.71,107.92 459.89,182.99 162.66,71.95 295.63,178.35 398.87,319.12 103.24,140.77 154.86,309.71 154.86,506.79 0,312.84 -106.36,561.57 -319.12,746.12 -212.72,178.35 -492.7,267.5 -839.95,267.5 -416.07,0 -758.64,-150.18 -1027.7,-450.49l154.86 -192.39c240.89,222.08 520.87,333.16 839.99,333.16 222.12,0 395.75,-53.18 520.87,-159.54 125.13,-106.4 187.71,-250.29 187.71,-431.72z"/>
  <path id="_5" class="fil1" d="M29272.21 32647.58c509.95,0 927.58,162.66 1252.95,488.02 328.48,325.36 492.7,736.75 492.7,1234.14 0,497.42 -165.78,907.26 -497.42,1229.5 -331.6,319.08 -747.68,478.62 -1248.22,478.62 -500.55,0 -918.18,-159.54 -1252.95,-478.62 -328.48,-319.12 -492.7,-727.39 -492.7,-1224.77 0,-497.42 167.38,-908.82 502.11,-1234.18 337.89,-328.48 752.4,-492.7 1243.54,-492.7zm-1210.69 1731.56c0,400.43 112.6,732.03 337.84,994.85 225.28,259.66 516.19,389.46 872.84,389.46 362.89,0 653.84,-131.37 872.84,-394.19 225.24,-265.9 337.84,-602.22 337.84,-1008.89 0,-412.95 -112.6,-749.28 -337.84,-1008.93 -219,-262.78 -509.95,-394.19 -872.84,-394.19 -344.13,0 -631.95,125.17 -863.44,375.42 -231.49,250.29 -347.25,599.1 -347.25,1046.47zm1609.56 -2111.7l-342.57 145.49 -206.48 0 276.86 -337.89c62.58,-75.07 109.52,-125.13 140.81,-150.13 31.25,-25.05 70.39,-37.57 117.28,-37.57 53.18,0 96.22,17.21 129.07,51.62 32.85,34.41 49.28,76.67 49.28,126.73 0,87.59 -54.74,154.86 -164.26,201.75z"/>
  <g id="_1396937227008">
   <path class="fil1" d="M22895.62 39621.87l-351.48 0 -251.03 -561.69 -957.07 0 -251.03 561.69 -247.91 0 1026.14 -2290.71 1032.38 2290.71zm-702.92 -784.51l-379.69 -866.07 -379.69 866.07 759.38 0z"/>
   <path id="_1_11" class="fil1" d="M24590.27 38605.18l652.69 1016.7 -379.69 0 -602.47 -969.64 -225.94 0 0 969.64 -338.91 0 0 -2196.59 564.85 0c246.84,0 433.57,52.32 560.13,156.91 126.56,104.59 189.85,252.06 189.85,442.44 0,154.82 -38.72,281.38 -116.13,379.69 -77.41,98.35 -178.84,165.29 -304.38,200.85zm87.88 -577.38c0,-271.98 -149.6,-407.94 -448.72,-407.94l-194.57 0 0 831.57 197.69 0c297.07,0 445.6,-141.22 445.6,-423.63z"/>
   <polygon id="_2_12" class="fil1" points="27270.23,37425.29 27270.23,37632.42 26696.02,37632.42 26696.02,39621.87 26350.82,39621.87 26350.82,37632.42 25776.56,37632.42 25776.56,37425.29 "/>
   <g>
    <g>
     <polygon class="fil1" points="19188.08,38579.18 11034.14,38579.18 11034.14,38373.86 19188.08,38373.86 "/>
    </g>
    <g>
     <polygon class="fil1" points="28919.21,38579.18 28919.21,38373.86 37073.15,38373.86 37073.15,38579.18 "/>
    </g>
   </g>
  </g>
 </g>
</svg>
