<?xml version="1.0" encoding="UTF-8"?>
<!DOCTYPE svg PUBLIC "-//W3C//DTD SVG 1.1//EN" "http://www.w3.org/Graphics/SVG/1.1/DTD/svg11.dtd">
<!-- Creator: CorelDRAW -->
<svg xmlns="http://www.w3.org/2000/svg" xml:space="preserve" width="117.16mm" height="117.16mm" version="1.1" style="shape-rendering:geometricPrecision; text-rendering:geometricPrecision; image-rendering:optimizeQuality; fill-rule:evenodd; clip-rule:evenodd"
viewBox="0 0 5221.76 5221.75"
 xmlns:xlink="http://www.w3.org/1999/xlink"
 xmlns:xodm="http://www.corel.com/coreldraw/odm/2003">
 <defs>
  <style type="text/css">
   <![CDATA[
    .str8 {stroke:#CC9933;stroke-width:9.94;stroke-miterlimit:22.9256}
    .str2 {stroke:#CC9933;stroke-width:26.11;stroke-miterlimit:22.9256}
    .str1 {stroke:#CC9933;stroke-width:26.11;stroke-linejoin:round;stroke-miterlimit:22.9256}
    .str0 {stroke:#CC9933;stroke-width:26.11;stroke-linejoin:round;stroke-miterlimit:22.9256}
    .str4 {stroke:#CC9933;stroke-width:13.05;stroke-linecap:round;stroke-miterlimit:22.9256}
    .str7 {stroke:#CC9933;stroke-width:13.05;stroke-linecap:round;stroke-miterlimit:22.9256}
    .str5 {stroke:#CC9933;stroke-width:13.05;stroke-linecap:round;stroke-miterlimit:22.9256}
    .str6 {stroke:#CC9933;stroke-width:13.05;stroke-linecap:round;stroke-miterlimit:22.9256}
    .str3 {stroke:#CC9933;stroke-width:26.11;stroke-linecap:round;stroke-linejoin:round;stroke-miterlimit:22.9256}
    .fil3 {fill:none}
    .fil0 {fill:#052136}
    .fil2 {fill:#CC9933}
    .fil1 {fill:#CC9933;fill-rule:nonzero}
   ]]>
  </style>
 </defs>
 <g id="Camada_x0020_1">
  <metadata id="CorelCorpID_0Corel-Layer"/>
  <rect class="fil0" x="-0" y="-0" width="5221.76" height="5221.76"/>
  <g>
   <path class="fil1" d="M130.54 141.73l-11.14 -11.19 11.14 -11.19 4960.67 0 0 22.37 -4960.67 0zm-11.14 -11.19l0 -11.19 11.14 0 -11.14 11.19zm22.28 4960.66l-11.14 11.19 -11.14 -11.19 0 -4960.66 22.28 0 0 4960.66zm-11.14 11.19l-11.14 0 0 -11.19 11.14 11.19zm4960.67 -22.37l11.14 11.19 -11.14 11.19 -4960.67 0 0 -22.37 4960.67 0zm11.14 11.19l0 11.19 -11.14 0 11.14 -11.19zm-22.28 -4960.66l11.14 -11.19 11.14 11.19 0 4960.66 -22.28 0 0 -4960.66zm11.14 -11.19l11.14 0 0 11.19 -11.14 -11.19z"/>
  </g>
  <g id="_1396935648848">
   <g>
    <path class="fil2 str0" d="M3038.81 1529.66l-855.58 0c78.34,300.5 444.68,290.7 435.84,638.17 -18.79,-348.36 399.84,-372.19 419.75,-638.17z"/>
    <path class="fil3 str1" d="M2098.35 1029.73l0 447.66c20.35,393.98 652.84,486.83 385.46,723.55 -144.7,128.2 -389,289.59 -382.9,500.25l0 380.03m1032.15 2.52l0 -382.56c6.1,-210.66 -238.2,-372.05 -382.9,-500.25 -267.38,-236.72 365.1,-329.56 385.46,-723.55l0 -447.33m-1082.01 2051.11l1118.35 2.66 78.23 116.86 -1280.07 -2.18 83.48 -117.34zm-0.1 -2051.46l1118.99 0.32 79.14 -108.58 -1269.3 0 71.17 108.26z"/>
    <polygon class="fil2 str2" points="3071.45,2900.76 2615.66,2558.92 2158.55,2909.29 2158.67,3010.87 3071.49,3011.03 "/>
    <path class="fil3 str3" d="M2830.24 2414.9c119.04,86.31 186.64,187.63 198.51,304.6"/>
    <line class="fil3 str4" x1="2616.99" y1="2491.33" x2="2616.99" y2= "2524.41" />
    <line class="fil3 str5" x1="2616.99" y1="2412.03" x2="2616.99" y2= "2445.12" />
    <line class="fil3 str6" x1="2616.99" y1="2318.5" x2="2616.99" y2= "2351.58" />
    <line class="fil3 str7" x1="2616.99" y1="2227.22" x2="2616.99" y2= "2260.31" />
    <line class="fil3 str8" x1="2614.62" y1="2318.5" x2="2614.62" y2= "2351.58" />
   </g>
   <polygon class="fil2" points="2509.6,1257.61 2509.6,1202.2 2589.29,1202.2 2589.29,1131.85 2644.7,1131.85 2644.7,1202.2 2724.38,1202.2 2724.38,1257.61 2644.7,1257.61 2644.7,1427.58 2589.29,1427.58 2589.29,1257.61 "/>
  </g>
  <polygon class="fil1" points="1627.95,3665.22 1843.36,3907.48 1759.07,3907.48 1568.01,3692.69 1568.01,3907.48 1499.33,3907.48 1499.33,3470.4 1568.01,3470.4 1568.01,3663.96 1757.82,3470.4 1817.76,3470.4 "/>
  <path id="_1" class="fil1" d="M2291.92 3907.48l-57.05 0 -40.75 -91.18 -155.37 0 -40.75 91.18 -40.24 0 166.57 -371.86 167.59 371.86zm-114.11 -127.35l-61.63 -140.59 -61.64 140.59 123.27 0z"/>
  <polygon id="_2" class="fil1" points="2477.88,3550.89 2477.88,3907.48 2421.85,3907.48 2421.85,3550.89 "/>
  <path id="_3" class="fil1" d="M2788.65 3742.43l105.95 165.05 -61.64 0 -97.8 -157.41 -36.68 0 0 157.41 -55.01 0 0 -356.59 91.69 0c40.07,0 70.38,8.49 90.93,25.47 20.55,16.98 30.82,40.92 30.82,71.83 0,25.13 -6.28,45.67 -18.85,61.64 -12.56,15.96 -29.04,26.83 -49.41,32.6zm14.26 -93.73c0,-44.15 -24.28,-66.22 -72.84,-66.22l-31.59 0 0 134.99 32.09 0c48.22,0 72.34,-22.92 72.34,-68.77z"/>
  <path id="_4" class="fil1" d="M3180.91 3543.25c55.36,0 100.69,17.66 136.01,52.98 35.66,35.32 53.49,79.98 53.49,133.97 0,54 -18,98.48 -54,133.47 -36,34.64 -81.17,51.96 -135.5,51.96 -54.34,0 -99.67,-17.32 -136.01,-51.96 -35.66,-34.64 -53.49,-78.96 -53.49,-132.95 0,-54 18.17,-98.65 54.5,-133.98 36.68,-35.66 81.68,-53.49 135,-53.49zm-131.43 187.97c0,43.47 12.23,79.47 36.68,107.99 24.45,28.19 56.03,42.28 94.75,42.28 39.39,0 70.98,-14.26 94.75,-42.79 24.46,-28.87 36.68,-65.37 36.68,-109.52 0,-44.83 -12.23,-81.33 -36.68,-109.52 -23.77,-28.52 -55.36,-42.79 -94.75,-42.79 -37.36,0 -68.6,13.58 -93.73,40.75 -25.13,27.17 -37.7,65.04 -37.7,113.6zm174.73 -229.23l-37.19 15.79 -22.41 0 30.06 -36.68c6.79,-8.15 11.88,-13.58 15.28,-16.3 3.4,-2.72 7.64,-4.08 12.74,-4.08 5.77,0 10.44,1.87 14.01,5.61 3.57,3.73 5.35,8.32 5.35,13.75 0,9.51 -5.94,16.81 -17.83,21.91z"/>
  <path id="_5" class="fil1" d="M3669.96 3816.8c0,-16.64 -5.77,-30.22 -17.32,-40.75 -11.55,-10.53 -25.56,-18.85 -42.02,-24.96 -16.47,-6.11 -33.03,-12.73 -49.67,-19.86 -16.64,-7.13 -30.74,-17.91 -42.28,-32.35 -11.54,-14.43 -17.32,-32.69 -17.32,-54.76 0,-28.86 10.19,-52.81 30.57,-71.82 21.05,-19.02 47.2,-28.53 78.45,-28.53 36.34,0 67.58,14.1 93.73,42.28l-15.79 22.41c-3.74,-3.4 -9.51,-8.15 -17.32,-14.26 -16.3,-11.21 -35.83,-16.81 -58.58,-16.81 -18,0 -32.52,5.26 -43.56,15.79 -11.04,10.53 -16.55,24.11 -16.55,40.75 0,25.81 20.03,46.18 60.11,61.13 14.26,5.09 30.9,11.72 49.92,19.86 17.66,7.81 32.09,19.36 43.3,34.64 11.2,15.28 16.81,33.62 16.81,55.01 0,33.96 -11.54,60.96 -34.64,81 -23.09,19.36 -53.49,29.04 -91.18,29.04 -45.17,0 -82.35,-16.3 -111.56,-48.9l16.81 -20.89c26.15,24.11 56.54,36.17 91.18,36.17 24.11,0 42.96,-5.78 56.55,-17.32 13.58,-11.55 20.38,-27.17 20.38,-46.87z"/>
  <g id="_1396935662192">
   <path class="fil1" d="M2485.15 4300.27l-38.15 0 -27.25 -60.96 -103.87 0 -27.25 60.96 -26.91 0 111.37 -248.62 112.05 248.62zm-76.29 -85.15l-41.21 -94 -41.21 94 82.42 0z"/>
   <path id="_1_9" class="fil1" d="M2669.07 4189.92l70.84 110.34 -41.21 0 -65.39 -105.24 -24.52 0 0 105.24 -36.78 0 0 -238.4 61.31 0c26.79,0 47.06,5.68 60.79,17.03 13.74,11.35 20.6,27.36 20.6,48.02 0,16.8 -4.2,30.54 -12.6,41.21 -8.4,10.67 -19.41,17.94 -33.03,21.8zm9.54 -62.66c0,-29.52 -16.24,-44.28 -48.7,-44.28l-21.12 0 0 90.25 21.46 0c32.24,0 48.36,-15.33 48.36,-45.98z"/>
   <polygon id="_2_10" class="fil1" points="2959.93,4061.87 2959.93,4084.35 2897.61,4084.35 2897.61,4300.27 2860.15,4300.27 2860.15,4084.35 2797.82,4084.35 2797.82,4061.87 "/>
   <g>
    <g>
     <polygon class="fil1" points="2082.76,4187.1 1197.79,4187.1 1197.79,4164.82 2082.76,4164.82 "/>
    </g>
    <g>
     <polygon class="fil1" points="3138.9,4187.1 3138.9,4164.82 4023.87,4164.82 4023.87,4187.1 "/>
    </g>
   </g>
  </g>
 </g>
</svg>
